<mxfile host="app.diagrams.net" agent="Mozilla/5.0 (Windows NT 10.0; Win64; x64) AppleWebKit/537.36 (KHTML, like Gecko) Chrome/132.0.0.0 Safari/537.36 Edg/132.0.0.0" version="24.8.8">
  <diagram name="Page-1" id="oqSnpNd8q2mBu0USv9c8">
    <mxGraphModel dx="2954" dy="1187" grid="1" gridSize="10" guides="1" tooltips="1" connect="1" arrows="1" fold="1" page="1" pageScale="1" pageWidth="850" pageHeight="1100" math="0" shadow="0">
      <root>
        <mxCell id="0" />
        <mxCell id="1" parent="0" />
        <mxCell id="KGRMckUw9Kwyx4FsFSlq-5" style="edgeStyle=orthogonalEdgeStyle;rounded=0;orthogonalLoop=1;jettySize=auto;html=1;endArrow=none;endFill=0;fontSize=16;" edge="1" parent="1" source="KGRMckUw9Kwyx4FsFSlq-1">
          <mxGeometry relative="1" as="geometry">
            <mxPoint x="600" y="310" as="targetPoint" />
          </mxGeometry>
        </mxCell>
        <mxCell id="KGRMckUw9Kwyx4FsFSlq-1" value="DevOps Practices" style="rounded=1;whiteSpace=wrap;html=1;fontSize=16;" vertex="1" parent="1">
          <mxGeometry x="120" y="280" width="440" height="60" as="geometry" />
        </mxCell>
        <mxCell id="KGRMckUw9Kwyx4FsFSlq-2" value="MLOps Practices" style="rounded=1;whiteSpace=wrap;html=1;fontSize=16;" vertex="1" parent="1">
          <mxGeometry x="120" y="210" width="440" height="60" as="geometry" />
        </mxCell>
        <mxCell id="KGRMckUw9Kwyx4FsFSlq-3" value="LLMOps Practices" style="rounded=1;whiteSpace=wrap;html=1;fontSize=16;" vertex="1" parent="1">
          <mxGeometry x="120" y="140" width="440" height="60" as="geometry" />
        </mxCell>
        <mxCell id="KGRMckUw9Kwyx4FsFSlq-4" value="Manage the code and infrastructure of your application." style="text;html=1;align=left;verticalAlign=middle;whiteSpace=wrap;rounded=0;fontSize=14;" vertex="1" parent="1">
          <mxGeometry x="620" y="295" width="280" height="30" as="geometry" />
        </mxCell>
        <mxCell id="KGRMckUw9Kwyx4FsFSlq-6" style="edgeStyle=orthogonalEdgeStyle;rounded=0;orthogonalLoop=1;jettySize=auto;html=1;endArrow=none;endFill=0;exitX=1;exitY=0.5;exitDx=0;exitDy=0;fontSize=16;" edge="1" parent="1" source="KGRMckUw9Kwyx4FsFSlq-2">
          <mxGeometry relative="1" as="geometry">
            <mxPoint x="600" y="240" as="targetPoint" />
            <mxPoint x="570" y="320" as="sourcePoint" />
          </mxGeometry>
        </mxCell>
        <mxCell id="KGRMckUw9Kwyx4FsFSlq-7" value="Manage the statistical modeling aspects of your application." style="text;html=1;align=left;verticalAlign=middle;whiteSpace=wrap;rounded=0;fontSize=14;" vertex="1" parent="1">
          <mxGeometry x="620" y="225" width="280" height="30" as="geometry" />
        </mxCell>
        <mxCell id="KGRMckUw9Kwyx4FsFSlq-8" value="Manage LLM specific challenges." style="text;html=1;align=left;verticalAlign=middle;whiteSpace=wrap;rounded=0;fontSize=14;" vertex="1" parent="1">
          <mxGeometry x="620" y="155" width="280" height="30" as="geometry" />
        </mxCell>
        <mxCell id="KGRMckUw9Kwyx4FsFSlq-9" style="edgeStyle=orthogonalEdgeStyle;rounded=0;orthogonalLoop=1;jettySize=auto;html=1;endArrow=none;endFill=0;exitX=1;exitY=0.5;exitDx=0;exitDy=0;fontSize=16;" edge="1" parent="1" source="KGRMckUw9Kwyx4FsFSlq-3">
          <mxGeometry relative="1" as="geometry">
            <mxPoint x="600" y="170" as="targetPoint" />
            <mxPoint x="570" y="250" as="sourcePoint" />
          </mxGeometry>
        </mxCell>
      </root>
    </mxGraphModel>
  </diagram>
</mxfile>
